<mxfile host="app.diagrams.net" modified="2024-04-25T10:41:58.925Z" agent="Mozilla/5.0 (Macintosh; Intel Mac OS X 10_15_7) AppleWebKit/537.36 (KHTML, like Gecko) Chrome/124.0.0.0 Safari/537.36" etag="oG2XSuBR7Wq8L-7GBXhm" version="24.3.0" type="device">
  <diagram name="Page-1" id="-P5-ZTezMjHJCubLd_CP">
    <mxGraphModel dx="1375" dy="886" grid="1" gridSize="10" guides="1" tooltips="1" connect="1" arrows="1" fold="1" page="1" pageScale="1" pageWidth="827" pageHeight="1169" math="0" shadow="0">
      <root>
        <mxCell id="0" />
        <mxCell id="1" parent="0" />
        <mxCell id="iai4WNvKfeyXvWHVycpY-1" value="Quote Feeder" style="rounded=0;whiteSpace=wrap;html=1;" vertex="1" parent="1">
          <mxGeometry y="190" width="120" height="60" as="geometry" />
        </mxCell>
        <mxCell id="iai4WNvKfeyXvWHVycpY-2" value="Service Bus" style="rounded=0;whiteSpace=wrap;html=1;" vertex="1" parent="1">
          <mxGeometry x="180" y="210" width="240" height="20" as="geometry" />
        </mxCell>
        <mxCell id="iai4WNvKfeyXvWHVycpY-3" value="Quote Viewer" style="rounded=0;whiteSpace=wrap;html=1;" vertex="1" parent="1">
          <mxGeometry x="490" y="105" width="120" height="60" as="geometry" />
        </mxCell>
        <mxCell id="iai4WNvKfeyXvWHVycpY-4" value="Quote Viewer" style="rounded=0;whiteSpace=wrap;html=1;" vertex="1" parent="1">
          <mxGeometry x="490" y="185" width="120" height="60" as="geometry" />
        </mxCell>
        <mxCell id="iai4WNvKfeyXvWHVycpY-5" value="Quote Viewer" style="rounded=0;whiteSpace=wrap;html=1;" vertex="1" parent="1">
          <mxGeometry x="490" y="275" width="120" height="60" as="geometry" />
        </mxCell>
        <mxCell id="iai4WNvKfeyXvWHVycpY-6" value="" style="endArrow=classic;html=1;rounded=0;exitX=1;exitY=0.5;exitDx=0;exitDy=0;entryX=0;entryY=0.5;entryDx=0;entryDy=0;" edge="1" parent="1" source="iai4WNvKfeyXvWHVycpY-1" target="iai4WNvKfeyXvWHVycpY-2">
          <mxGeometry width="50" height="50" relative="1" as="geometry">
            <mxPoint x="390" y="460" as="sourcePoint" />
            <mxPoint x="440" y="410" as="targetPoint" />
          </mxGeometry>
        </mxCell>
        <mxCell id="iai4WNvKfeyXvWHVycpY-7" value="" style="endArrow=classic;html=1;rounded=0;entryX=0;entryY=0.5;entryDx=0;entryDy=0;" edge="1" parent="1" target="iai4WNvKfeyXvWHVycpY-3">
          <mxGeometry width="50" height="50" relative="1" as="geometry">
            <mxPoint x="420" y="215" as="sourcePoint" />
            <mxPoint x="470" y="165" as="targetPoint" />
          </mxGeometry>
        </mxCell>
        <mxCell id="iai4WNvKfeyXvWHVycpY-8" value="" style="endArrow=classic;html=1;rounded=0;exitX=1;exitY=0.5;exitDx=0;exitDy=0;entryX=0;entryY=0.5;entryDx=0;entryDy=0;" edge="1" parent="1" source="iai4WNvKfeyXvWHVycpY-2" target="iai4WNvKfeyXvWHVycpY-4">
          <mxGeometry width="50" height="50" relative="1" as="geometry">
            <mxPoint x="390" y="460" as="sourcePoint" />
            <mxPoint x="440" y="410" as="targetPoint" />
          </mxGeometry>
        </mxCell>
        <mxCell id="iai4WNvKfeyXvWHVycpY-9" value="" style="endArrow=classic;html=1;rounded=0;exitX=1;exitY=0.5;exitDx=0;exitDy=0;entryX=0;entryY=0.5;entryDx=0;entryDy=0;" edge="1" parent="1" source="iai4WNvKfeyXvWHVycpY-2" target="iai4WNvKfeyXvWHVycpY-5">
          <mxGeometry width="50" height="50" relative="1" as="geometry">
            <mxPoint x="390" y="460" as="sourcePoint" />
            <mxPoint x="440" y="410" as="targetPoint" />
          </mxGeometry>
        </mxCell>
        <mxCell id="iai4WNvKfeyXvWHVycpY-16" style="edgeStyle=orthogonalEdgeStyle;rounded=0;orthogonalLoop=1;jettySize=auto;html=1;" edge="1" parent="1" source="iai4WNvKfeyXvWHVycpY-10" target="iai4WNvKfeyXvWHVycpY-15">
          <mxGeometry relative="1" as="geometry" />
        </mxCell>
        <mxCell id="iai4WNvKfeyXvWHVycpY-10" value="load balancer / ingress" style="rounded=0;whiteSpace=wrap;html=1;" vertex="1" parent="1">
          <mxGeometry x="640" y="150" width="100" height="110" as="geometry" />
        </mxCell>
        <mxCell id="iai4WNvKfeyXvWHVycpY-12" value="" style="endArrow=classic;html=1;rounded=0;exitX=1;exitY=0.5;exitDx=0;exitDy=0;entryX=0;entryY=0.364;entryDx=0;entryDy=0;entryPerimeter=0;" edge="1" parent="1" source="iai4WNvKfeyXvWHVycpY-3" target="iai4WNvKfeyXvWHVycpY-10">
          <mxGeometry width="50" height="50" relative="1" as="geometry">
            <mxPoint x="390" y="460" as="sourcePoint" />
            <mxPoint x="440" y="410" as="targetPoint" />
          </mxGeometry>
        </mxCell>
        <mxCell id="iai4WNvKfeyXvWHVycpY-13" value="" style="endArrow=classic;html=1;rounded=0;exitX=1;exitY=0.5;exitDx=0;exitDy=0;entryX=-0.01;entryY=0.6;entryDx=0;entryDy=0;entryPerimeter=0;" edge="1" parent="1" source="iai4WNvKfeyXvWHVycpY-4" target="iai4WNvKfeyXvWHVycpY-10">
          <mxGeometry width="50" height="50" relative="1" as="geometry">
            <mxPoint x="390" y="460" as="sourcePoint" />
            <mxPoint x="440" y="410" as="targetPoint" />
          </mxGeometry>
        </mxCell>
        <mxCell id="iai4WNvKfeyXvWHVycpY-14" value="" style="endArrow=classic;html=1;rounded=0;exitX=1.017;exitY=0.4;exitDx=0;exitDy=0;exitPerimeter=0;entryX=0;entryY=0.75;entryDx=0;entryDy=0;" edge="1" parent="1" source="iai4WNvKfeyXvWHVycpY-5" target="iai4WNvKfeyXvWHVycpY-10">
          <mxGeometry width="50" height="50" relative="1" as="geometry">
            <mxPoint x="390" y="460" as="sourcePoint" />
            <mxPoint x="440" y="410" as="targetPoint" />
          </mxGeometry>
        </mxCell>
        <mxCell id="iai4WNvKfeyXvWHVycpY-15" value="user" style="shape=umlActor;verticalLabelPosition=bottom;verticalAlign=top;html=1;outlineConnect=0;" vertex="1" parent="1">
          <mxGeometry x="810" y="175" width="30" height="60" as="geometry" />
        </mxCell>
      </root>
    </mxGraphModel>
  </diagram>
</mxfile>
